HIERARCHY
ROOT Hips
{
	OFFSET 0.00000 0.00000 0.00000
	CHANNELS 6 Xposition Yposition Zposition Yrotation Zrotation Xrotation 
	JOINT Lumbar
	{
		OFFSET 0 0 0
		CHANNELS 3 Zrotation Xrotation Yrotation
		JOINT Neck
		{
			OFFSET 0.00 0.2701 0.00
			CHANNELS 3 Zrotation Xrotation Yrotation
			End Site
			{
				OFFSET 0.00 0.1379 0.00
			}
		}
		JOINT RightShoulder
		{
			OFFSET 0.0119 0.2289 0.1181
			CHANNELS 3 Zrotation Xrotation Yrotation
			JOINT RightElbow
			{
				OFFSET 0.00 -0.1475 0.00
				CHANNELS 2 Zrotation Yrotation
				JOINT RightWrist
				{
					OFFSET 0.00 -0.1605 0.00
					CHANNELS 2 Zrotation Xrotation
					End Site
					{
						OFFSET 0.0040 -0.1068 0.0006
					}
				}
			}
		}
		JOINT LeftShoulder
		{
			OFFSET 0.0119 0.2289 -0.1181
			CHANNELS 3 Zrotation Xrotation Yrotation
			JOINT LeftElbow
			{
				OFFSET 0.00 -0.1475 0.00
				CHANNELS 2 Zrotation Yrotation
				JOINT LeftWrist
				{
					OFFSET 0.00 -0.1605 0.00
					CHANNELS 2 Zrotation Xrotation
					End Site
					{
						OFFSET 0.0040 -0.1068 -0.0006
					}
				}
			}
		}
	}
	JOINT RightHip
	{
		OFFSET 0.0316 -0.0424 0.0458
		CHANNELS 3 Zrotation Xrotation Yrotation
		JOINT RightKnee
		{
			OFFSET 0.00 -0.2438 0.00
			CHANNELS 1 Zrotation
			JOINT RightAnkle
			{
				OFFSET 0.00 -0.2449 0.00
				CHANNELS 3 Zrotation Xrotation Yrotation
				End Site
				{
					OFFSET 0.1237 -0.0542 0.0051
				}
			}
		}
	}
	JOINT LeftHip
	{
		OFFSET 0.0316 -0.0424 -0.0458
		CHANNELS 3 Zrotation Xrotation Yrotation
		JOINT LeftKnee
		{
			OFFSET 0.00 -0.2438 0.00
			CHANNELS 1 Zrotation
			JOINT LeftAnkle
			{
				OFFSET 0.00 -0.2449 0.00
				CHANNELS 3 Zrotation Xrotation Yrotation
				End Site
				{
					OFFSET 0.1237 -0.0542 -0.0051
				}
			}
		}
	}
}
MOTION
Frames: 25
Frame Time: 0.02
-0.00363 -0.0019 0.00585 33.19882 -23.63327 -6.94947 41.60216 2.16845 -7.02658 7.70166 0.52324 -0.60347 6.14956 -12.94106 3.48263 32.95514 82.92047 1.06227 -0.42012 27.70952 7.43199 -18.04975 49.54119 -84.81713 2.23886 -0.09149 36.76468 0.30043 -2.71394 -19.67969 -6.26412 -2.54548 -3.45877 46.68195 3.64129 1.69543 -35.88013 -6.54771 3.951 4.14679
-0.00359 -0.002 0.00371 33.14833 -23.82867 -7.03578 41.93286 2.18952 -7.16428 7.24665 0.65172 -0.60651 4.27946 -12.93068 1.91735 32.13646 83.11135 1.11923 -0.35171 24.41695 7.71372 -17.34489 49.22006 -85.53648 2.58742 -0.24169 36.83134 0.09451 -3.18504 -19.6586 -6.25287 -2.4951 -3.43185 46.29133 4.06213 2.37221 -35.19491 -6.52468 3.75361 4.05009
-0.00356 -0.0021 0.00158 33.09788 -24.02413 -7.12175 42.26336 2.21036 -7.30203 6.79195 0.77971 -0.60953 2.41244 -12.91929 0.35328 31.32155 83.31116 1.17883 -0.28179 21.12964 7.99506 -16.6409 48.89919 -86.25714 2.93731 -0.39163 36.89833 -0.11128 -3.65547 -19.63738 -6.24167 -2.44482 -3.40498 45.90203 4.48131 3.04793 -34.51101 -6.50174 3.55673 3.95365
-0.00352 -0.00219 -0.00056 33.04753 -24.21905 -7.20778 42.5932 2.23134 -7.4394 6.33815 0.90777 -0.61256 0.54765 -12.90876 -1.20786 30.50562 83.50333 1.23617 -0.21325 17.84644 8.27599 -15.93797 48.57889 -86.97492 3.28523 -0.54141 36.96489 -0.31666 -4.12528 -19.61632 -6.23046 -2.39458 -3.37813 45.51263 4.9008 3.72283 -33.82775 -6.47878 3.35992 3.85724
-0.00348 -0.00229 -0.00269 32.99718 -24.41364 -7.29419 42.92288 2.25262 -7.57651 5.8845 1.03636 -0.61559 -1.31919 -12.89966 -2.7686 29.68535 83.68209 1.28952 -0.14704 14.55977 8.55717 -15.23476 48.25871 -87.68983 3.63079 -0.69138 37.03091 -0.52194 -4.59536 -19.59548 -6.21921 -2.34428 -3.35124 45.12187 5.3221 4.39832 -33.14355 -6.45575 3.16265 3.76059
-0.00345 -0.00239 -0.00483 32.94652 -24.61087 -7.37924 43.25504 2.27255 -7.71554 5.42765 1.16308 -0.61861 -3.18642 -12.88348 -4.33941 28.88169 83.92552 1.3621 -0.06943 11.2713 8.83881 -14.52923 47.93646 -88.42239 3.98965 -0.84125 37.09992 -0.7288 -5.06643 -19.57346 -6.20811 -2.29405 -3.32444 44.73565 5.73683 5.07442 -32.46033 -6.43298 2.96663 3.66458
-0.00341 -0.00248 -0.00696 32.89657 -24.80267 -7.46687 43.58199 2.29513 -7.85069 4.97762 1.2934 -0.62164 -5.05087 -12.88148 -5.8889 28.04585 84.04116 1.39666 -0.01436 7.9903 9.11913 -13.82891 47.61848 -89.11924 4.32173 -0.99117 37.16291 -0.93233 -5.53526 -19.55382 -6.19671 -2.24372 -3.29747 44.34075 6.16425 5.74878 -31.77577 -6.40972 2.76828 3.56738
-0.00338 -0.00258 -0.00909 32.84589 -24.99927 -7.55223 43.91347 2.31534 -7.98919 4.52153 1.42046 -0.62467 -6.91775 -12.86657 -7.4568 27.23903 84.26987 1.4649 0.06062 4.70202 9.40084 -13.12423 47.29701 -89.8479 4.67784 -1.14098 37.23129 -1.13879 -6.00568 -19.53203 -6.1856 -2.19351 -3.27067 43.95379 6.58007 6.42431 -31.09267 -6.3869 2.5721 3.47129
-0.00335 -0.00267 -0.01123 32.79457 -25.20277 -7.63444 44.25189 2.33233 -8.13284 4.05675 1.54333 -0.62768 -8.78941 -12.83502 -9.05346 26.47013 84.65754 1.58032 0.16375 1.40412 9.68377 -12.41192 46.96923 -90.62081 5.06656 -1.29101 37.30705 -1.34954 -6.48026 -19.50737 -6.1748 -2.14328 -3.24402 43.57669 6.98142 7.10346 -30.41005 -6.36465 2.37838 3.37648
-0.00327 -0.00279 -0.01335 32.74771 -25.36971 -7.73365 44.55462 2.3669 -8.25002 3.63805 1.68968 -0.63074 -10.63911 -12.89659 -10.50357 25.49043 84.19321 1.44241 0.11637 -1.84078 9.95825 -11.73654 46.67158 -91.15536 5.27742 -1.44086 37.34271 -1.53779 -6.93757 -19.49852 -6.16208 -2.09267 -3.21631 43.1433 7.4652 7.76841 -29.72071 -6.3392 2.16992 3.27406
-0.00332 -0.00285 -0.01552 32.69094 -25.6117 -7.7977 44.92982 2.365 -8.42096 3.12482 1.7869 -0.63371 -12.53115 -12.76349 -12.2503 24.95071 85.48539 1.8271 0.37906 -5.19521 10.25142 -10.9879 46.31443 -92.18201 5.85698 -1.59037 37.46143 -1.77202 -7.42696 -19.45676 -6.15351 -2.04318 -3.19098 42.82838 7.77557 8.45894 -29.04821 -6.32045 1.99298 3.18787
-0.00377 -0.00274 -0.01787 32.61043 -26.07912 -7.75849 45.52938 2.25676 -8.75774 2.32726 1.74464 -0.63645 -14.57349 -12.07675 -14.92118 25.66946 91.98017 3.75705 1.56217 -8.87243 10.58672 -9.99079 45.75831 -94.66909 7.51527 -1.74605 37.82348 -2.1463 -8.04141 -19.3201 -6.15563 -1.99417 -3.17114 42.84452 7.60114 9.25684 -28.40011 -6.32063 1.89974 3.14508
-0.00436 -0.00257 -0.02028 32.51911 -26.61838 -7.68519 46.19696 2.11307 -9.14478 1.43968 1.65389 -0.6391 -16.65115 -11.19872 -17.86757 26.82041 100.16392 6.19005 3.04313 -12.65389 10.94052 -8.92443 45.14891 -97.63456 9.53282 -1.90088 38.26633 -2.5642 -8.68113 -19.15129 -6.16207 -1.94677 -3.1539 42.97871 7.25421 10.07361 -27.77301 -6.32742 1.83866 3.11879
-0.0049 -0.00243 -0.02265 32.43072 -27.11193 -7.63196 46.81681 1.98963 -9.49728 0.60916 1.58844 -0.64178 -18.69157 -10.42017 -20.61848 27.74037 107.33016 8.32175 4.34318 -16.37542 11.29434 -7.92638 44.58737 -100.30339 11.34042 -2.05045 38.66181 -2.95307 -9.28522 -19.00017 -6.16699 -1.90037 -3.13617 43.05471 6.99209 10.85744 -27.15047 -6.33081 1.76465 3.08567
-0.0054 -0.00226 -0.02509 32.3515 -27.66038 -7.55952 47.50793 1.84854 -9.9006 -0.29094 1.50927 -0.64451 -20.82528 -9.58583 -23.67471 28.80769 115.57152 10.76607 5.83871 -20.15728 11.62071 -6.79093 43.92644 -103.28872 13.33998 -2.22054 39.10137 -3.38086 -9.99167 -18.83583 -6.17002 -1.84672 -3.11554 43.14931 6.70266 11.74396 -26.46822 -6.33588 1.68355 3.04974
-0.00602 -0.00215 -0.02739 32.2496 -28.11197 -7.51877 48.06656 1.73596 -10.20832 -1.06591 1.44699 -0.64712 -22.76832 -8.82541 -26.15017 29.66986 121.95323 12.67251 6.99445 -23.82925 11.99848 -5.90234 43.45918 -105.75197 15.03221 -2.35182 39.46958 -3.73801 -10.49046 -18.69162 -6.17804 -1.80849 -3.10154 43.23419 6.42908 12.42129 -25.91559 -6.33902 1.62491 3.02361
-0.00692 -0.00219 -0.02932 32.0966 -28.27416 -7.57606 48.24323 1.70952 -10.2536 -1.48504 1.44469 -0.64941 -24.21442 -8.29023 -27.04157 29.86406 122.96402 13.02204 7.16659 -27.24591 12.6056 -5.9209 43.54632 -106.4418 15.71983 -2.33924 39.60948 -3.88868 -10.4143 -18.60945 -6.19861 -1.81271 -3.10538 43.25415 6.24326 12.51449 -25.71358 -6.33522 1.61961 3.01998
-0.00795 -0.00228 -0.03109 31.91961 -28.33714 -7.66602 48.28377 1.71325 -10.1984 -1.77222 1.46067 -0.65167 -25.4589 -7.84078 -27.324 29.83615 122.0176 12.80494 6.98227 -30.53298 13.2502 -6.15974 43.82896 -106.62323 16.09592 -2.29347 39.67705 -3.96701 -10.12824 -18.54913 -6.22411 -1.83226 -3.11573 43.26207 6.07911 12.39705 -25.64176 -6.32925 1.63594 3.02571
-0.00893 -0.00235 -0.03293 31.74763 -28.44839 -7.73959 48.38666 1.70399 -10.18003 -2.11294 1.46747 -0.6539 -26.77237 -7.36909 -27.8263 29.90671 121.84225 12.81107 6.9417 -33.83308 13.8128 -6.15033 44.01786 -107.18623 16.66225 -2.28845 39.78508 -4.07882 -9.93413 -18.47948 -6.24745 -1.84471 -3.12305 43.28134 5.90383 12.37702 -25.51167 -6.32423 1.64291 3.02747
-0.00987 -0.00241 -0.03481 31.59968 -28.5488 -7.81847 48.49119 1.69039 -10.20045 -2.48673 1.47673 -0.65607 -28.18829 -6.82056 -28.57274 30.00193 122.19978 12.97205 6.98443 -37.33705 14.63569 -6.72952 44.22571 -107.15678 17.04566 -2.17941 39.86331 -4.18915 -9.75198 -18.40534 -6.27054 -1.85813 -3.13095 43.27937 5.7277 12.34977 -25.37828 -6.31953 1.64907 3.02865
-0.01093 -0.0025 -0.03654 31.39669 -28.64719 -7.89451 48.55747 1.69351 -10.1159 -2.75566 1.48522 -0.65865 -29.3354 -6.45441 -28.66955 29.98849 120.99318 12.67873 6.77033 -40.37597 14.94347 -6.1791 44.44104 -108.20133 17.71886 -2.27368 39.98612 -4.28535 -9.4991 -18.34719 -6.29533 -1.8727 -3.13893 43.31792 5.56101 12.28827 -25.2827 -6.31362 1.66157 3.03301
-0.01225 -0.00266 -0.0379 31.04304 -28.76455 -7.95435 48.56446 1.73501 -9.7626 -2.79589 1.49244 -0.6598 -29.84842 -6.57686 -27.05736 29.71888 115.65488 11.18587 5.88739 -42.22835 13.65711 -2.07627 44.63037 -112.62052 19.37542 -2.98521 40.24326 -4.35558 -9.06392 -18.32011 -6.32308 -1.89081 -3.14735 43.46507 5.4132 12.17497 -25.25716 -6.30443 1.68682 3.04409
-0.01368 -0.00285 -0.03909 30.63596 -28.88275 -8.0102 48.53466 1.79242 -9.30752 -2.72905 1.49728 -0.66185 -30.08596 -6.88004 -24.82217 29.34815 108.85462 9.26817 4.76532 -43.60169 11.87814 3.10625 44.82016 -118.0849 21.31346 -3.89403 40.54878 -4.41491 -8.57134 -18.31065 -6.35241 -1.90885 -3.1553 43.65392 5.27511 12.03587 -25.2656 -6.29415 1.71746 3.05792
-0.01508 -0.00303 -0.04034 30.25612 -29.00017 -8.06862 48.51308 1.84317 -8.90108 -2.69239 1.5003 -0.66518 -30.41178 -7.09712 -22.91391 29.02742 102.90794 7.59765 3.78225 -45.15396 10.43528 7.53717 45.00971 -122.8788 23.04955 -4.68066 40.83568 -4.48181 -8.13075 -18.29747 -6.3814 -1.9241 -3.16222 43.82728 5.135 11.91448 -25.25993 -6.28467 1.74512 3.07025
-0.01641 -0.00319 -0.04168 29.86206 -29.11638 -8.12599 48.52357 1.8931 -8.48114 -2.7304 1.51718 -0.66141 -30.88945 -7.33256 -20.80305 28.67893 96.10067 5.68038 2.65983 -46.87634 8.53296 13.03555 45.20773 -128.47104 25.08392 -5.60161 41.10496 -4.53441 -7.57562 -18.26411 -6.40914 -1.95146 -3.1745 43.98598 4.98643 11.76118 -25.25289 -6.27388 1.77577 3.08395
